<?xml version="1.0" encoding="UTF-8" standalone="no"?>
<!DOCTYPE svg PUBLIC "-//W3C//DTD SVG 1.1//EN"
 "http://www.w3.org/Graphics/SVG/1.1/DTD/svg11.dtd">
<!-- Generated by graphviz version 13.1.2 (0)
 -->
<!-- Pages: 1 -->
<svg width="1588pt" height="1118pt"
 viewBox="0.00 0.00 1588.00 1118.00" xmlns="http://www.w3.org/2000/svg" xmlns:xlink="http://www.w3.org/1999/xlink">
<g id="graph0" class="graph" transform="scale(1 1) rotate(0) translate(4 1113.67)">
<polygon fill="white" stroke="none" points="-4,4 -4,-1113.67 1583.91,-1113.67 1583.91,4 -4,4"/>
<!-- n2 -->
<g id="node1" class="node">
<title>n2</title>
<ellipse fill="yellow" stroke="black" cx="963.88" cy="-754.1" rx="83.83" ry="83.83"/>
<ellipse fill="none" stroke="black" cx="963.88" cy="-754.1" rx="87.83" ry="87.83"/>
<text xml:space="preserve" text-anchor="middle" x="963.88" y="-749.42" font-family="Times,serif" font-size="14.00">10.100.212.19</text>
</g>
<!-- n7 -->
<g id="node7" class="node">
<title>n7</title>
<path fill="lightsalmon" stroke="black" d="M1129.08,-601.07C1129.08,-601.07 970.57,-612.54 970.57,-612.54 967.22,-612.78 960.53,-612.78 957.18,-612.54 957.18,-612.54 798.67,-601.07 798.67,-601.07 795.32,-600.82 792,-597.23 792.03,-593.87 792.03,-593.87 792.08,-587.17 792.08,-587.17 792.11,-583.81 795.49,-580.46 798.85,-580.46 798.85,-580.46 1128.9,-580.46 1128.9,-580.46 1132.26,-580.46 1135.64,-583.81 1135.67,-587.17 1135.67,-587.17 1135.72,-593.87 1135.72,-593.87 1135.75,-597.23 1132.43,-600.82 1129.08,-601.07"/>
<text xml:space="preserve" text-anchor="middle" x="963.88" y="-590.34" font-family="Times,serif" font-size="14.00">csp&#45;ADC&#45;WebVIP1&#45;INT&#45;D1</text>
</g>
<!-- n2&#45;&gt;n7 -->
<g id="edge1" class="edge">
<title>n2&#45;&gt;n7</title>
<path fill="none" stroke="black" d="M963.88,-665.83C963.88,-650.95 963.88,-636.49 963.88,-624.62"/>
<polygon fill="green" stroke="black" points="967.38,-624.8 963.88,-614.8 960.38,-624.8 967.38,-624.8"/>
<text xml:space="preserve" text-anchor="middle" x="998.38" y="-634.97" font-family="Times,serif" font-size="14.00">443 | SSL</text>
</g>
<!-- n3 -->
<g id="node2" class="node">
<title>n3</title>
<path fill="none" stroke="black" d="M253.75,-36C253.75,-36 12,-36 12,-36 6,-36 0,-30 0,-24 0,-24 0,-12 0,-12 0,-6 6,0 12,0 12,0 253.75,0 253.75,0 259.75,0 265.75,-6 265.75,-12 265.75,-12 265.75,-24 265.75,-24 265.75,-30 259.75,-36 253.75,-36"/>
<text xml:space="preserve" text-anchor="middle" x="132.88" y="-13.32" font-family="Times,serif" font-size="14.00">NOTFAKE&#45;UN1&#45;P1 | 172.27.88.204</text>
</g>
<!-- n4 -->
<g id="node3" class="node">
<title>n4</title>
<path fill="none" stroke="black" d="M528.25,-36C528.25,-36 295.5,-36 295.5,-36 289.5,-36 283.5,-30 283.5,-24 283.5,-24 283.5,-12 283.5,-12 283.5,-6 289.5,0 295.5,0 295.5,0 528.25,0 528.25,0 534.25,0 540.25,-6 540.25,-12 540.25,-12 540.25,-24 540.25,-24 540.25,-30 534.25,-36 528.25,-36"/>
<text xml:space="preserve" text-anchor="middle" x="411.88" y="-13.32" font-family="Times,serif" font-size="14.00">NOTFAKE&#45;UN2&#45;P1 | 172.27.92.41</text>
</g>
<!-- n12 -->
<g id="node4" class="node">
<title>n12</title>
<path fill="aqua" stroke="black" stroke-width="2" d="M767.78,-601.11C767.78,-601.11 623.56,-612.49 623.56,-612.49 620.22,-612.76 613.53,-612.76 610.19,-612.49 610.19,-612.49 465.97,-601.11 465.97,-601.11 462.63,-600.85 459.31,-597.23 459.33,-593.87 459.33,-593.87 459.38,-587.17 459.38,-587.17 459.41,-583.81 462.79,-580.46 466.14,-580.46 466.14,-580.46 767.61,-580.46 767.61,-580.46 770.96,-580.46 774.34,-583.81 774.37,-587.17 774.37,-587.17 774.42,-593.87 774.42,-593.87 774.44,-597.23 771.12,-600.85 767.78,-601.11"/>
<text xml:space="preserve" text-anchor="middle" x="616.88" y="-590.34" font-family="Times,serif" font-size="14.00">notfake.mydomain.com</text>
</g>
<!-- n11 -->
<g id="node11" class="node">
<title>n11</title>
<path fill="lightsalmon" stroke="black" d="M899.52,-511.64C899.52,-511.64 639.58,-523.46 639.58,-523.46 636.23,-523.62 629.52,-523.62 626.17,-523.46 626.17,-523.46 366.23,-511.64 366.23,-511.64 362.88,-511.48 359.57,-507.98 359.61,-504.62 359.61,-504.62 359.7,-497.92 359.7,-497.92 359.74,-494.56 363.14,-491.21 366.49,-491.21 366.49,-491.21 899.26,-491.21 899.26,-491.21 902.61,-491.21 906.01,-494.56 906.05,-497.92 906.05,-497.92 906.14,-504.62 906.14,-504.62 906.18,-507.98 902.87,-511.48 899.52,-511.64"/>
<text xml:space="preserve" text-anchor="middle" x="632.88" y="-501.09" font-family="Times,serif" font-size="14.00">pol&#45;cs&#45;WebVIP&#45;INT&#45;notfake.mydomain.com</text>
</g>
<!-- n12&#45;&gt;n11 -->
<g id="edge2" class="edge">
<title>n12&#45;&gt;n11</title>
<path fill="none" stroke="black" d="M619.45,-580C621.65,-567.99 624.89,-550.31 627.64,-535.33"/>
<polygon fill="black" stroke="black" points="631.07,-536.01 629.43,-525.54 624.19,-534.75 631.07,-536.01"/>
</g>
<!-- n1 -->
<g id="node5" class="node">
<title>n1</title>
<ellipse fill="yellow" stroke="black" cx="249.88" cy="-359.26" rx="87.51" ry="87.51"/>
<ellipse fill="none" stroke="black" cx="249.88" cy="-359.26" rx="91.51" ry="91.51"/>
<text xml:space="preserve" text-anchor="middle" x="249.88" y="-354.58" font-family="Times,serif" font-size="14.00">Global | 0.0.0.0</text>
</g>
<!-- n6 -->
<g id="node13" class="node">
<title>n6</title>
<path fill="lightgoldenrodyellow" stroke="black" d="M397.43,-202.69C397.43,-202.69 278.55,-213.87 278.55,-213.87 275.21,-214.19 268.54,-214.19 265.2,-213.87 265.2,-213.87 146.32,-202.69 146.32,-202.69 142.99,-202.38 139.67,-198.71 139.69,-195.35 139.69,-195.35 139.73,-188.65 139.73,-188.65 139.75,-185.29 143.12,-181.94 146.48,-181.94 146.48,-181.94 397.27,-181.94 397.27,-181.94 400.63,-181.94 404,-185.29 404.02,-188.65 404.02,-188.65 404.06,-195.35 404.06,-195.35 404.08,-198.71 400.76,-202.38 397.43,-202.69"/>
<text xml:space="preserve" text-anchor="middle" x="271.88" y="-191.82" font-family="Times,serif" font-size="14.00">vsp&#45;notfake&#45;INT&#45;D1</text>
</g>
<!-- n1&#45;&gt;n6 -->
<g id="edge3" class="edge">
<title>n1&#45;&gt;n6</title>
<path fill="none" stroke="black" d="M262.16,-268.48C264.27,-253.05 266.32,-238.09 267.99,-225.92"/>
<polygon fill="green" stroke="black" points="271.42,-226.64 269.31,-216.26 264.48,-225.69 271.42,-226.64"/>
<text xml:space="preserve" text-anchor="middle" x="280.81" y="-236.45" font-family="Times,serif" font-size="14.00">SSL</text>
</g>
<!-- n10 -->
<g id="node6" class="node">
<title>n10</title>
<path fill="lightsalmon" stroke="black" d="M366.23,-353.39C366.23,-353.39 626.17,-341.56 626.17,-341.56 629.52,-341.41 636.23,-341.41 639.58,-341.56 639.58,-341.56 899.52,-353.39 899.52,-353.39 902.87,-353.54 906.18,-357.05 906.14,-360.41 906.14,-360.41 906.05,-367.11 906.05,-367.11 906.01,-370.47 902.61,-373.82 899.26,-373.82 899.26,-373.82 366.49,-373.82 366.49,-373.82 363.14,-373.82 359.74,-370.47 359.7,-367.11 359.7,-367.11 359.61,-360.41 359.61,-360.41 359.57,-357.05 362.88,-353.54 366.23,-353.39"/>
<text xml:space="preserve" text-anchor="middle" x="632.88" y="-354.58" font-family="Times,serif" font-size="14.00">act&#45;cs&#45;WebVIP&#45;INT&#45;notfake.mydomain.com</text>
</g>
<!-- n10&#45;&gt;n6 -->
<g id="edge4" class="edge">
<title>n10&#45;&gt;n6</title>
<path fill="none" stroke="black" d="M597.27,-342.41C530.44,-312.64 386.47,-248.53 314.56,-216.51"/>
<polygon fill="black" stroke="black" points="316.02,-213.33 305.46,-212.46 313.17,-219.72 316.02,-213.33"/>
</g>
<!-- n7&#45;&gt;n11 -->
<g id="edge5" class="edge">
<title>n7&#45;&gt;n11</title>
<path fill="none" stroke="black" d="M910.69,-580C853.46,-564.91 762.29,-540.88 700.12,-524.49"/>
<polygon fill="green" stroke="black" points="701.27,-521.18 690.71,-522.01 699.49,-527.95 701.27,-521.18"/>
<text xml:space="preserve" text-anchor="middle" x="842.27" y="-545.72" font-family="Times,serif" font-size="14.00">SSL</text>
</g>
<!-- n13 -->
<g id="node8" class="node">
<title>n13</title>
<path fill="lightblue" stroke="black" d="M1057.75,-931.17C1057.75,-931.17 870,-931.17 870,-931.17 864,-931.17 858,-925.17 858,-919.17 858,-919.17 858,-907.17 858,-907.17 858,-901.17 864,-895.17 870,-895.17 870,-895.17 1057.75,-895.17 1057.75,-895.17 1063.75,-895.17 1069.75,-901.17 1069.75,-907.17 1069.75,-907.17 1069.75,-919.17 1069.75,-919.17 1069.75,-925.17 1063.75,-931.17 1057.75,-931.17"/>
<text xml:space="preserve" text-anchor="middle" x="963.88" y="-908.5" font-family="Times,serif" font-size="14.00">gslb&#45;svcp&#45;ADC&#45;WebVIP1&#45;D1</text>
</g>
<!-- n13&#45;&gt;n2 -->
<g id="edge6" class="edge">
<title>n13&#45;&gt;n2</title>
<path fill="none" stroke="black" d="M963.88,-894.76C963.88,-883.99 963.88,-869.2 963.88,-853.26"/>
<polygon fill="green" stroke="black" points="967.38,-853.59 963.88,-843.59 960.38,-853.59 967.38,-853.59"/>
<text xml:space="preserve" text-anchor="middle" x="998.38" y="-863.87" font-family="Times,serif" font-size="14.00">443 | SSL</text>
</g>
<!-- n8 -->
<g id="node9" class="node">
<title>n8</title>
<path fill="lightblue" stroke="black" d="M1428.25,-1008.35C1428.25,-1008.35 1210.57,-1020.06 1210.57,-1020.06 1207.22,-1020.24 1200.53,-1020.24 1197.18,-1020.06 1197.18,-1020.06 979.5,-1008.35 979.5,-1008.35 976.15,-1008.17 972.83,-1004.63 972.87,-1001.28 972.87,-1001.28 972.94,-994.57 972.94,-994.57 972.98,-991.21 976.37,-987.86 979.72,-987.86 979.72,-987.86 1428.03,-987.86 1428.03,-987.86 1431.38,-987.86 1434.77,-991.21 1434.81,-994.57 1434.81,-994.57 1434.88,-1001.28 1434.88,-1001.28 1434.92,-1004.63 1431.6,-1008.17 1428.25,-1008.35"/>
<text xml:space="preserve" text-anchor="middle" x="1203.88" y="-997.75" font-family="Times,serif" font-size="14.00">gslb&#45;vsp&#45;ADC&#45;WebVIP1&#45;D1&#45;Primary</text>
</g>
<!-- n8&#45;&gt;n13 -->
<g id="edge7" class="edge">
<title>n8&#45;&gt;n13</title>
<path fill="none" stroke="black" d="M1165.31,-987.4C1126.76,-973.39 1066.95,-951.65 1022.51,-935.49"/>
<polygon fill="black" stroke="black" points="1023.87,-932.26 1013.28,-932.13 1021.48,-938.84 1023.87,-932.26"/>
<text xml:space="preserve" text-anchor="middle" x="1125.62" y="-953.12" font-family="Times,serif" font-size="14.00">GSLB</text>
</g>
<!-- n9 -->
<g id="node10" class="node">
<title>n9</title>
<path fill="lightblue" stroke="black" d="M1573.21,-919.07C1573.21,-919.07 1340.58,-930.83 1340.58,-930.83 1337.23,-931 1330.52,-931 1327.17,-930.83 1327.17,-930.83 1094.54,-919.07 1094.54,-919.07 1091.19,-918.9 1087.88,-915.38 1087.92,-912.03 1087.92,-912.03 1088,-905.32 1088,-905.32 1088.03,-901.96 1091.43,-898.61 1094.78,-898.61 1094.78,-898.61 1572.97,-898.61 1572.97,-898.61 1576.32,-898.61 1579.72,-901.96 1579.75,-905.32 1579.75,-905.32 1579.83,-912.03 1579.83,-912.03 1579.87,-915.38 1576.56,-918.9 1573.21,-919.07"/>
<text xml:space="preserve" text-anchor="middle" x="1333.88" y="-908.5" font-family="Times,serif" font-size="14.00">gslb&#45;vsp&#45;ADC&#45;WebVIP1&#45;D2&#45;Secondary</text>
</g>
<!-- n8&#45;&gt;n9 -->
<g id="edge8" class="edge">
<title>n8&#45;&gt;n9</title>
<path fill="none" stroke="black" d="M1200.1,-987.47C1197.89,-975.97 1196.96,-959.87 1205.38,-949.17 1211.18,-941.8 1226.2,-935.59 1244.03,-930.54"/>
<polygon fill="black" stroke="black" points="1244.87,-933.94 1253.65,-928.01 1243.09,-927.17 1244.87,-933.94"/>
<text xml:space="preserve" text-anchor="middle" x="1258.62" y="-953.12" font-family="Times,serif" font-size="14.00">ROUNDROBIN</text>
</g>
<!-- n9&#45;&gt;n8 -->
<g id="edge9" class="edge">
<title>n9&#45;&gt;n8</title>
<path fill="none" stroke="black" d="M1330.54,-931.39C1327.49,-942.77 1321.88,-957.24 1311.88,-966.42 1304.6,-973.11 1296.03,-978.51 1286.95,-982.89"/>
<polygon fill="black" stroke="black" points="1285.7,-979.62 1277.92,-986.8 1288.49,-986.04 1285.7,-979.62"/>
<text xml:space="preserve" text-anchor="middle" x="1376.74" y="-953.12" font-family="Times,serif" font-size="14.00">ROUNDROBIN</text>
</g>
<!-- n11&#45;&gt;n10 -->
<g id="edge10" class="edge">
<title>n11&#45;&gt;n10</title>
<path fill="none" stroke="black" d="M632.88,-490.91C632.88,-466.7 632.88,-416.35 632.88,-385.71"/>
<polygon fill="black" stroke="black" points="636.38,-385.8 632.88,-375.8 629.38,-385.8 636.38,-385.8"/>
</g>
<!-- n5 -->
<g id="node12" class="node">
<title>n5</title>
<path fill="lightgrey" stroke="magenta" stroke-width="2" d="M321.88,-125.25C321.88,-125.25 221.88,-125.25 221.88,-125.25 215.88,-125.25 209.88,-119.25 209.88,-113.25 209.88,-113.25 209.88,-101.25 209.88,-101.25 209.88,-95.25 215.88,-89.25 221.88,-89.25 221.88,-89.25 321.88,-89.25 321.88,-89.25 327.88,-89.25 333.88,-95.25 333.88,-101.25 333.88,-101.25 333.88,-113.25 333.88,-113.25 333.88,-119.25 327.88,-125.25 321.88,-125.25"/>
<text xml:space="preserve" text-anchor="middle" x="271.88" y="-102.58" font-family="Times,serif" font-size="14.00">sgp&#45;notfake&#45;D1</text>
</g>
<!-- n5&#45;&gt;n3 -->
<g id="edge12" class="edge">
<title>n5&#45;&gt;n3</title>
<path fill="none" stroke="black" d="M244.08,-88.8C222.87,-75.49 193.43,-57.01 170.17,-42.41"/>
<polygon fill="green" stroke="black" points="172.23,-39.57 161.9,-37.22 168.51,-45.5 172.23,-39.57"/>
<text xml:space="preserve" text-anchor="middle" x="249.32" y="-57.95" font-family="Times,serif" font-size="14.00">443 | SSL</text>
</g>
<!-- n5&#45;&gt;n4 -->
<g id="edge11" class="edge">
<title>n5&#45;&gt;n4</title>
<path fill="none" stroke="black" d="M299.87,-88.8C321.23,-75.49 350.89,-57.01 374.31,-42.41"/>
<polygon fill="green" stroke="black" points="376.01,-45.48 382.64,-37.22 372.31,-39.54 376.01,-45.48"/>
<text xml:space="preserve" text-anchor="middle" x="388.91" y="-57.95" font-family="Times,serif" font-size="14.00">443 | SSL</text>
</g>
<!-- n6&#45;&gt;n5 -->
<g id="edge13" class="edge">
<title>n6&#45;&gt;n5</title>
<path fill="none" stroke="black" d="M271.88,-181.48C271.88,-169.47 271.88,-151.79 271.88,-136.81"/>
<polygon fill="green" stroke="black" points="275.38,-137.05 271.88,-127.05 268.38,-137.05 275.38,-137.05"/>
<text xml:space="preserve" text-anchor="middle" x="286.12" y="-147.2" font-family="Times,serif" font-size="14.00">SSL</text>
</g>
<!-- n14 -->
<g id="node14" class="node">
<title>n14</title>
<path fill="aqua" stroke="black" stroke-width="2" d="M1385.99,-1097.68C1385.99,-1097.68 1210.57,-1109.23 1210.57,-1109.23 1207.22,-1109.45 1200.53,-1109.45 1197.18,-1109.23 1197.18,-1109.23 1021.76,-1097.68 1021.76,-1097.68 1018.42,-1097.46 1015.1,-1093.88 1015.13,-1090.53 1015.13,-1090.53 1015.19,-1083.82 1015.19,-1083.82 1015.22,-1080.46 1018.6,-1077.11 1021.95,-1077.11 1021.95,-1077.11 1385.8,-1077.11 1385.8,-1077.11 1389.15,-1077.11 1392.53,-1080.46 1392.56,-1083.82 1392.56,-1083.82 1392.62,-1090.53 1392.62,-1090.53 1392.65,-1093.88 1389.33,-1097.46 1385.99,-1097.68"/>
<text xml:space="preserve" text-anchor="middle" x="1203.88" y="-1087" font-family="Times,serif" font-size="14.00">webvip1.adc.mydomain.com</text>
</g>
<!-- n14&#45;&gt;n8 -->
<g id="edge14" class="edge">
<title>n14&#45;&gt;n8</title>
<path fill="none" stroke="black" d="M1203.88,-1076.65C1203.88,-1064.64 1203.88,-1046.96 1203.88,-1031.98"/>
<polygon fill="black" stroke="black" points="1207.38,-1032.22 1203.88,-1022.22 1200.38,-1032.22 1207.38,-1032.22"/>
<text xml:space="preserve" text-anchor="middle" x="1224.12" y="-1042.37" font-family="Times,serif" font-size="14.00">GSLB</text>
</g>
</g>
</svg>
